<?xml version="1.0" encoding="UTF-8"?>
<svg version="1.1" xmlns="http://www.w3.org/2000/svg" width="441" height="510">
<path d="M0 0 C1.24910156 0.00483398 1.24910156 0.00483398 2.5234375 0.00976562 C3.35617188 -0.00634766 4.18890625 -0.02246094 5.046875 -0.0390625 C5.84351563 -0.03970703 6.64015625 -0.04035156 7.4609375 -0.04101562 C8.19183594 -0.04399658 8.92273438 -0.04697754 9.67578125 -0.05004883 C11.5234375 0.32226562 11.5234375 0.32226562 13.5234375 3.32226562 C13.73614488 5.91768029 13.83467569 8.40947517 13.84228516 11.0065918 C13.85735359 12.17767738 13.85735359 12.17767738 13.87272644 13.37242126 C13.90362071 15.95335147 13.92061079 18.53417765 13.9375 21.11523438 C13.95620664 22.90457559 13.97577967 24.69390794 13.9961853 26.48323059 C14.04756581 31.19317401 14.08715981 35.90314606 14.12432861 40.61322021 C14.16433119 45.41930251 14.2154406 50.22526515 14.265625 55.03125 C14.36245434 64.46150456 14.44683668 73.89182659 14.5234375 83.32226562 C15.43576645 83.33257309 16.3480954 83.34288055 17.28807068 83.35350037 C25.86733754 83.45129823 34.44653257 83.5537869 43.02567959 83.66160488 C47.4367715 83.71687394 51.84786999 83.77030016 56.2590332 83.81958008 C60.51250737 83.86716507 64.76589839 83.91950548 69.01927376 83.97520638 C70.64562993 83.9956566 72.27200892 84.01436518 73.89840508 84.03133965 C76.16860113 84.0553249 78.43863863 84.08538697 80.70874023 84.11694336 C82.65066505 84.14025978 82.65066505 84.14025978 84.63182068 84.16404724 C87.5234375 84.32226562 87.5234375 84.32226562 88.5234375 85.32226562 C88.61110862 87.39488639 88.63039623 89.47046857 88.62109375 91.54492188 C88.61787109 92.80498047 88.61464844 94.06503906 88.61132812 95.36328125 C88.60297153 96.70377671 88.59450657 98.0442715 88.5859375 99.38476562 C88.5809241 100.72916504 88.57636092 102.07356622 88.57226562 103.41796875 C88.56043238 106.71944503 88.54394721 110.02083366 88.5234375 113.32226562 C82.5834375 113.81726563 82.5834375 113.81726563 76.5234375 114.32226562 C76.1934375 115.97226563 75.8634375 117.62226562 75.5234375 119.32226562 C72.86074159 121.23640524 70.58176487 121.56856366 67.35546875 121.59570312 C66.55334961 121.61334717 65.75123047 121.63099121 64.92480469 121.64916992 C64.07047852 121.6650415 63.21615234 121.68091309 62.3359375 121.69726562 C48.16967738 122.20687103 25.17920404 124.85668169 14.5234375 135.32226562 C13.91424949 138.17242644 13.91424949 138.17242644 14.00445557 141.49150085 C13.99054276 142.78299042 13.97662994 144.07447998 13.96229553 145.40510559 C13.96700881 146.83932621 13.9721028 148.27354561 13.97753906 149.70776367 C13.96880658 151.21558704 13.95832193 152.72340114 13.94621277 154.23120117 C13.91829191 158.32807368 13.91494941 162.42464473 13.91593266 166.52159858 C13.91280875 170.80180643 13.8872015 175.08187745 13.86395264 179.36201477 C13.82334891 187.46862794 13.80304169 195.57516058 13.78997874 203.68185979 C13.77412346 212.91036301 13.7357141 222.1387289 13.69538546 231.36715257 C13.61292672 250.35214687 13.55887199 269.33712827 13.5234375 288.32226562 C15.45423339 287.85437445 17.38406449 287.38250074 19.31347656 286.90893555 C20.38825256 286.64658615 21.46302856 286.38423676 22.57037354 286.11393738 C25.69849291 285.27533592 28.42931035 284.1823054 31.2734375 282.63476562 C32.09328125 282.19777344 32.913125 281.76078125 33.7578125 281.31054688 C34.34046875 280.98441406 34.923125 280.65828125 35.5234375 280.32226562 C34.91454998 276.22974298 32.61726164 273.27762867 30.3359375 269.94726562 C16.88079509 249.63069663 12.09445588 225.16864903 16.59960938 201.16430664 C22.0166638 176.46939136 36.67754135 153.57165278 57.625 139.19335938 C60.88055975 137.14600856 64.17177369 135.20782619 67.5234375 133.32226562 C68.97556641 132.50242188 68.97556641 132.50242188 70.45703125 131.66601562 C85.16404723 123.84355936 101.22744234 119.92117348 117.8359375 120.00976562 C118.94026123 120.01540527 120.04458496 120.02104492 121.18237305 120.02685547 C139.02673969 120.29273745 152.80820366 125.4428129 165.5234375 138.32226562 C166.4515625 139.25039062 167.3796875 140.17851562 168.3359375 141.13476562 C176.31907271 152.76733408 177.79962691 165.02183767 175.3359375 178.63476562 C172.86024209 190.61581662 168.11198251 199.79105309 160.5234375 209.32226562 C160.06453125 209.94617188 159.605625 210.57007813 159.1328125 211.21289062 C149.21814732 223.99444694 133.17400742 232.34016816 117.5234375 235.32226562 C115.96302734 235.38607422 115.96302734 235.38607422 114.37109375 235.45117188 C109.01093184 235.75072908 105.19287181 236.32325523 101.34765625 240.20898438 C98.70496404 243.18710481 96.30417033 246.33609088 93.92236328 249.52441406 C91.21170689 253.00805693 88.05570053 256.08333694 84.97265625 259.23632812 C83.32470753 261.17440046 83.32470753 261.17440046 83.55859375 263.33398438 C84.78360616 265.85840267 86.31662107 267.49224504 88.2734375 269.50976562 C107.45320573 290.3005128 123.36932888 314.78062682 130.5234375 342.32226562 C131.00490234 344.17078125 131.00490234 344.17078125 131.49609375 346.05664062 C138.05832014 376.45653592 133.06975288 406.87868745 118.625 434.06445312 C117.37727587 436.20314487 117.37727587 436.20314487 117.5234375 438.32226562 C118.51923828 438.56009766 118.51923828 438.56009766 119.53515625 438.80273438 C125.23984441 440.31010453 128.93342436 441.53558144 132.5234375 446.32226562 C132.5234375 447.31226563 132.5234375 448.30226563 132.5234375 449.32226562 C129.45817809 448.87149218 127.42197282 448.26364159 124.7109375 446.69726562 C120.70100736 444.96749184 117.6097516 445.01759908 113.5234375 446.32226562 C105.4345388 451.33738282 101.15015024 460.34187413 98.9921875 469.38476562 C97.80814415 476.8047706 96.91506318 484.94143964 101.5234375 491.32226562 C105.07051702 493.09580538 108.65893659 492.94157667 112.5234375 492.32226562 C123.17140209 487.54634033 128.26754184 474.46074064 132.5859375 464.38476562 C133.04363525 463.33337402 133.50133301 462.28198242 133.97290039 461.19873047 C138.04688205 451.70884554 141.75741859 442.08603597 145.4609375 432.44726562 C177.22249051 349.79547225 177.22249051 349.79547225 202.87890625 329.61914062 C203.75160156 328.86117188 204.62429688 328.10320312 205.5234375 327.32226562 C205.5234375 326.33226562 205.5234375 325.34226562 205.5234375 324.32226562 C198.05479628 320.81915061 188.84643411 321.10393894 181.1484375 323.88476562 C176.15872634 326.22037511 172.31787401 329.36147595 168.5234375 333.32226562 C167.91628906 333.94617188 167.30914062 334.57007813 166.68359375 335.21289062 C162.70208607 339.77812043 160.34620662 344.59366977 158.2109375 350.19726562 C157.84718018 351.15040649 157.84718018 351.15040649 157.47607422 352.12280273 C153.97499165 361.96171074 153.2331976 371.63142899 153.3984375 382.00976562 C153.41197266 383.65235352 153.41197266 383.65235352 153.42578125 385.328125 C153.44905596 387.99307917 153.48174615 390.65754696 153.5234375 393.32226562 C150.66015625 393.00195312 150.66015625 393.00195312 147.5234375 392.32226562 C140.60664415 383.23162293 139.46891163 371.38307032 140.5234375 360.32226562 C143.35728939 345.20838887 148.89013176 332.90350624 161.1640625 323.24414062 C171.54196494 316.18716697 182.06951494 314.08738301 194.5234375 315.32226562 C198.4720083 316.09531751 202.29676054 317.19161598 206.1484375 318.34960938 C211.94407231 320.01987913 215.43263867 320.77314365 221.0859375 318.38476562 C224.78233773 316.83804496 227.50308773 316.08235325 231.5234375 316.32226562 C231.4609375 318.44726562 231.4609375 318.44726562 230.5234375 321.32226562 C229.07421875 322.60351562 229.07421875 322.60351562 227.2734375 323.94726562 C207.51188656 339.66907521 204.3713131 387.01465215 201.5234375 410.32226562 C201.86375 409.64164062 202.2040625 408.96101563 202.5546875 408.25976562 C203.60000029 406.16914004 204.64706172 404.07938838 205.6953125 401.99023438 C206.93068457 399.52149138 208.1470079 397.04446122 209.3515625 394.56054688 C216.6955436 379.49572746 224.77664522 365.23193434 235.5234375 352.32226562 C236.30203125 351.37867188 237.080625 350.43507813 237.8828125 349.46289062 C249.00478401 336.59629614 264.23627356 324.09733019 281.5234375 321.32226562 C285.21617836 321.05675393 288.88504682 321.04215668 292.5859375 321.07226562 C293.54048828 321.06453125 294.49503906 321.05679687 295.47851562 321.04882812 C300.88613316 321.06375599 305.41235091 321.53586643 310.5234375 323.32226562 C310.8534375 324.97226562 311.1834375 326.62226563 311.5234375 328.32226562 C310.17765625 328.39960937 310.17765625 328.39960937 308.8046875 328.47851562 C295.26583061 329.7093208 281.16918773 335.2360195 271.625 345.33007812 C256.54241839 366.95642529 249.984497 392.73108443 245.5234375 418.32226562 C245.39066406 419.03012207 245.25789063 419.73797852 245.12109375 420.46728516 C240.49832691 445.1848039 241.80422852 474.09235934 253.76953125 496.56835938 C254.90367561 499.20686102 254.86647726 501.50933963 254.5234375 504.32226562 C253.5234375 505.32226562 253.5234375 505.32226562 249.8359375 505.63476562 C243.94426206 505.52974467 240.44511631 502.46018518 236.4609375 498.38476562 C230.37313603 490.93879322 227.84630349 480.69000269 226.5234375 471.32226562 C226.41257812 470.54753906 226.30171875 469.7728125 226.1875 468.97460938 C222.54527339 438.70475305 229.89477991 402.71231568 244.67578125 376.00195312 C245.67361497 374.33825469 245.67361497 374.33825469 245.5234375 372.32226562 C237.30648044 384.36232922 229.23330722 396.36765579 222.5234375 409.32226562 C222.12705078 410.07846191 221.73066406 410.8346582 221.32226562 411.61376953 C208.07418807 437.17470543 199.67577782 463.43904675 200.5234375 492.32226562 C197.79522823 491.75957246 196.64350957 491.43108094 194.5234375 489.50976562 C189.07905603 480.83278266 187.38199778 470.85519175 187.28515625 460.77929688 C187.2753624 459.94674377 187.26556854 459.11419067 187.25547791 458.25640869 C187.07791242 439.20309086 187.53398705 421.0277483 191.5234375 402.32226562 C191.84489746 400.74614502 191.84489746 400.74614502 192.17285156 399.13818359 C195.43659946 383.29214123 199.88362026 367.90256087 204.88427734 352.5234375 C205.61638902 350.38416976 205.61638902 350.38416976 205.5234375 348.32226562 C199.80647069 358.81159967 194.52322187 369.38177754 189.74984741 380.33270264 C188.7382009 382.65308678 187.7183479 384.96972139 186.6965332 387.28564453 C185.30041233 390.45131753 183.90686596 393.61809775 182.51611328 396.78613281 C155.40213654 458.5334866 155.40213654 458.5334866 137.5234375 480.32226562 C136.78222656 481.24136719 136.04101562 482.16046875 135.27734375 483.10742188 C128.16887986 491.50833375 118.69783816 498.8803166 107.53515625 500.63476562 C101.03485803 501.03866765 96.05136679 498.50858285 91.2109375 494.32226562 C87.63202262 487.95975029 86.66203203 480.46242385 85.5234375 473.32226562 C84.770625 473.93972656 84.0178125 474.5571875 83.2421875 475.19335938 C74.84415141 481.94374751 66.09247003 487.38764689 56.5234375 492.32226562 C55.59144531 492.80373047 55.59144531 492.80373047 54.640625 493.29492188 C23.08678302 509.3403862 -17.84112582 516.94322026 -52.4765625 507.32226562 C-53.55599121 507.02425049 -53.55599121 507.02425049 -54.65722656 506.72021484 C-81.82485659 499.00673418 -103.51937988 483.30232204 -117.6484375 458.59570312 C-130.73663451 434.59612127 -132.56184537 407.45462471 -125.4765625 381.32226562 C-121.46370231 368.3979032 -115.21054588 357.58943347 -106.4765625 347.32226562 C-105.69732422 346.32453125 -105.69732422 346.32453125 -104.90234375 345.30664062 C-89.24356266 325.90079604 -63.37022508 313.56113132 -39.4765625 308.32226562 C-38.11917969 308.00322266 -38.11917969 308.00322266 -36.734375 307.67773438 C-28.10272135 305.85433034 -19.26556729 305.68968277 -10.4765625 305.32226562 C-9.79697647 302.92507131 -9.79697647 302.92507131 -9.4765625 300.32226562 C-11.66864657 298.13018155 -12.50876041 297.90325121 -15.44140625 297.24414062 C-16.23603271 297.0564209 -17.03065918 296.86870117 -17.84936523 296.67529297 C-18.69571533 296.47629395 -19.54206543 296.27729492 -20.4140625 296.07226562 C-37.55533427 291.73938189 -50.21414706 282.60571892 -59.58837891 267.60571289 C-69.57567627 250.62637354 -70.66131014 226.70464954 -65.8515625 207.88476562 C-65.11590685 205.67779867 -64.32588293 203.48803273 -63.4765625 201.32226562 C-63.0640625 200.18789062 -62.6515625 199.05351562 -62.2265625 197.88476562 C-56.56212988 183.46620985 -48.17592503 171.42331071 -37.4765625 160.32226562 C-36.3653275 158.99481748 -35.26060113 157.66187932 -34.1640625 156.32226562 C-27.51935916 148.66744111 -18.96760268 141.7942693 -10.4765625 136.32226562 C-9.8165625 136.32226562 -9.1565625 136.32226562 -8.4765625 136.32226562 C-8.4765625 129.06226563 -8.4765625 121.80226563 -8.4765625 114.32226562 C-33.2265625 113.99226563 -57.9765625 113.66226563 -83.4765625 113.32226562 C-83.4765625 103.75226563 -83.4765625 94.18226562 -83.4765625 84.32226562 C-59.0565625 83.99226563 -34.6365625 83.66226563 -9.4765625 83.32226562 C-9.40308594 74.58628906 -9.40308594 74.58628906 -9.328125 65.67382812 C-9.29275336 61.99151872 -9.25680183 58.30923342 -9.21875 54.62695312 C-9.15836417 48.77802929 -9.10016516 42.92913934 -9.0546875 37.08007812 C-9.01790205 32.3661932 -8.97156085 27.6524915 -8.91849899 22.93876266 C-8.89991908 21.13740619 -8.88482452 19.33601039 -8.87321854 17.53459549 C-8.85641732 15.01782585 -8.82739798 12.50147916 -8.79541016 9.98486328 C-8.79324997 9.23464401 -8.79108978 8.48442474 -8.78886414 7.71147156 C-8.67139122 0.51065197 -6.50536005 0.0578956 0 0 Z M13.5234375 115.32226562 C13.27327877 118.90583804 13.27327877 118.90583804 13.5234375 122.32226562 C16.86113235 123.43483058 17.55018308 123.23313753 20.76171875 122.17773438 C21.58220703 121.91283203 22.40269531 121.64792969 23.24804688 121.375 C24.10205078 121.08947266 24.95605469 120.80394531 25.8359375 120.50976562 C26.67833984 120.23583984 27.52074219 119.96191406 28.38867188 119.6796875 C30.77014723 118.90324088 33.14744334 118.1153051 35.5234375 117.32226562 C36.71324219 116.92652344 37.90304688 116.53078125 39.12890625 116.12304688 C39.91910156 115.85878906 40.70929688 115.59453125 41.5234375 115.32226562 C38.26487706 113.149892 37.29701406 113.06623911 33.5234375 113.05664062 C32.5540625 113.0540625 31.5846875 113.05148438 30.5859375 113.04882812 C29.5753125 113.0565625 28.5646875 113.06429687 27.5234375 113.07226562 C26.5128125 113.06453125 25.5021875 113.05679688 24.4609375 113.04882812 C23.006875 113.05269531 23.006875 113.05269531 21.5234375 113.05664062 C20.6365625 113.05889648 19.7496875 113.06115234 18.8359375 113.06347656 C16.24892805 113.173972 16.24892805 113.173972 13.5234375 115.32226562 Z M66.8984375 152.94726562 C54.35796811 167.44094087 48.3039365 185.18718631 49.5234375 204.32226562 C51.89315913 221.76864138 58.15023989 238.54638999 70.5234375 251.32226562 C75.28675409 249.93439281 77.76518866 247.2030733 80.7734375 243.44726562 C81.21945313 242.91746094 81.66546875 242.38765625 82.125 241.84179688 C84.35941887 239.11309746 86.07693125 236.87714232 86.5234375 233.32226562 C85.85957031 232.86078125 85.19570312 232.39929688 84.51171875 231.92382812 C77.11727485 226.46165497 72.24426382 220.53976108 70.5234375 211.32226562 C69.49352284 195.77451548 73.12601108 181.68194116 83.2109375 169.50976562 C89.2205627 163.15343128 97.72700911 156.88087011 106.64453125 156.02148438 C118.17943469 155.980725 118.17943469 155.980725 122.5234375 159.32226562 C128.51251617 166.93001421 128.15247124 175.02429019 127.5234375 184.32226562 C125.82524733 196.78457462 121.39220421 208.27611928 115.44140625 219.29882812 C114.31686722 221.40727786 114.31686722 221.40727786 114.5234375 224.32226562 C123.47098884 223.36453652 130.09266327 217.38378004 135.7734375 210.69726562 C145.14454994 198.1384387 150.88006496 183.00447135 151.5234375 167.32226562 C151.60078125 166.23751953 151.60078125 166.23751953 151.6796875 165.13085938 C152.06601742 156.1325917 150.16918431 147.01853501 144.23046875 140.06835938 C143.66714844 139.49214844 143.10382813 138.9159375 142.5234375 138.32226562 C141.69392578 137.47341797 141.69392578 137.47341797 140.84765625 136.60742188 C118.96318909 117.44093993 83.27291216 135.90330648 66.8984375 152.94726562 Z M-10.4765625 152.32226562 C-33.2027305 173.51919615 -46.77626047 202.33598004 -47.87890625 233.51391602 C-48.09772667 248.65963184 -44.34222047 262.35502324 -35.1640625 274.63476562 C-29.23204898 280.56677914 -21.67520612 285.26906472 -13.4765625 287.32226562 C-10.67997521 286.92592846 -10.67997521 286.92592846 -8.4765625 285.32226562 C-8.38034214 283.61400875 -8.35468622 281.90174449 -8.35630798 280.19078064 C-8.35493332 279.07873764 -8.35355865 277.96669464 -8.35214233 276.82095337 C-8.35573761 275.59025116 -8.35933289 274.35954895 -8.36303711 273.09155273 C-8.36289108 271.80393539 -8.36274506 270.51631805 -8.3625946 269.18968201 C-8.36230664 265.64851803 -8.36820314 262.10738763 -8.37516856 258.56623149 C-8.38140233 254.86931575 -8.38200592 251.17239931 -8.38319397 247.47547913 C-8.38630722 240.47022664 -8.39452051 233.46498968 -8.40454346 226.45974404 C-8.4157048 218.48647687 -8.4212151 210.51320898 -8.42623889 202.53993595 C-8.43670313 186.13403674 -8.45430245 169.72815316 -8.4765625 153.32226562 C-9.1365625 152.99226562 -9.7965625 152.66226563 -10.4765625 152.32226562 Z M98.21875 173.08789062 C90.30321572 183.90845264 84.46840095 196.11945606 84.2109375 209.69726562 C84.17355469 210.98375 84.13617188 212.27023438 84.09765625 213.59570312 C84.59930067 217.98624233 85.55381117 220.06207884 88.5234375 223.32226562 C91.65609229 224.29107152 91.65609229 224.29107152 94.5234375 224.32226562 C100.01170488 215.85632125 105.22787491 207.2989069 109.9609375 198.38476562 C110.5794458 197.2336731 110.5794458 197.2336731 111.21044922 196.05932617 C115.70869922 187.45700271 118.92873465 179.17496007 117.5234375 169.32226562 C116.07991946 166.07279098 116.07991946 166.07279098 113.5234375 164.32226562 C106.4557802 163.58915368 102.50587667 167.94333862 98.21875 173.08789062 Z M36.0859375 290.57226562 C30.25941489 293.12001216 24.49517974 294.87292224 18.359375 296.52539062 C15.60378376 297.20351606 15.60378376 297.20351606 13.5234375 298.32226562 C13.5234375 362.01226562 13.5234375 425.70226562 13.5234375 491.32226562 C37.62858122 489.31350365 58.800679 480.69679359 77.5234375 465.32226562 C78.16796875 464.8246875 78.8125 464.32710937 79.4765625 463.81445312 C96.97647326 449.65802125 106.8809671 428.3428523 109.5234375 406.32226562 C110.78339301 387.91865321 106.95471554 370.66055663 98.5234375 354.32226562 C98.14912598 353.59265625 97.77481445 352.86304688 97.38916016 352.11132812 C86.43446695 331.03804057 72.06272856 313.82209903 55.5234375 296.88476562 C54.71011963 296.03696533 53.89680176 295.18916504 53.05883789 294.31567383 C52.28403076 293.53538818 51.50922363 292.75510254 50.7109375 291.95117188 C50.02386719 291.25064697 49.33679688 290.55012207 48.62890625 289.82836914 C44.30419706 286.73477788 40.5349898 288.52360354 36.0859375 290.57226562 Z M-56.4765625 335.32226562 C-57.16878906 335.92296875 -57.86101562 336.52367187 -58.57421875 337.14257812 C-68.79165798 346.52718434 -75.91654485 359.37289801 -80.4765625 372.32226562 C-80.71777832 372.98049316 -80.95899414 373.6387207 -81.20751953 374.31689453 C-84.95224079 384.85585661 -85.93231723 394.97282564 -85.9765625 406.13476562 C-85.98284668 407.32593994 -85.98913086 408.51711426 -85.99560547 409.74438477 C-85.67291646 432.42503613 -77.5187874 453.22547534 -61.4765625 469.32226562 C-60.46335937 470.37027344 -60.46335937 470.37027344 -59.4296875 471.43945312 C-47.97605453 482.50555716 -28.87726108 491.43140327 -12.81201172 491.34545898 C-11.5946785 491.34043617 -11.5946785 491.34043617 -10.35275269 491.33531189 C-9.73360992 491.33100662 -9.11446716 491.32670135 -8.4765625 491.32226562 C-8.42989702 468.53965049 -8.39460046 445.75704321 -8.37293816 422.97439003 C-8.36261383 412.39664744 -8.34853149 401.8189345 -8.32568359 391.24121094 C-8.30578503 382.02454369 -8.29285448 372.8078979 -8.28838551 363.59120977 C-8.28577212 358.70845024 -8.27960568 353.82575213 -8.26510239 348.94301224 C-8.25157422 344.35156304 -8.24733015 339.76020083 -8.25034714 335.1687336 C-8.24979483 333.47960882 -8.2457891 331.79048127 -8.23815155 330.10137367 C-8.2282647 327.80295774 -8.23057044 325.50487435 -8.23605347 323.20645142 C-8.23328809 321.27345153 -8.23328809 321.27345153 -8.23046684 319.30140114 C-8.16308099 316.20475166 -8.16308099 316.20475166 -10.4765625 314.32226562 C-27.48139454 314.32226562 -44.35681743 324.13787034 -56.4765625 335.32226562 Z M207.5234375 343.32226562 C208.5234375 345.32226562 208.5234375 345.32226562 208.5234375 345.32226562 Z " fill="#FFFFFF" transform="translate(129.4765625,-0.322265625)"/>
</svg>
