<?xml version="1.0" encoding="iso-8859-1"?>
<!-- Uploaded to: SVG Repo, www.svgrepo.com, Generator: SVG Repo Mixer Tools -->
<!DOCTYPE svg PUBLIC "-//W3C//DTD SVG 1.1//EN" "http://www.w3.org/Graphics/SVG/1.1/DTD/svg11.dtd">
<svg height="800px" width="800px" version="1.1" id="Capa_1" xmlns="http://www.w3.org/2000/svg" xmlns:xlink="http://www.w3.org/1999/xlink" 
	 viewBox="0 0 174.468 174.468" xml:space="preserve">
<g id="sun3">
	<g>
		<g>
			<g>
				<g>
					<path style="fill:#F9CF64;" d="M87.233,174.468v-6.035c44.773,0,81.199-36.426,81.199-81.199h6.035
						C174.468,135.335,135.334,174.468,87.233,174.468z"/>
				</g>
			</g>
			<g>
				<g>
					<path style="fill:#F9CF64;" d="M6.035,87.234H0C0,39.133,39.134,0,87.233,0v6.035C42.461,6.035,6.035,42.461,6.035,87.234z"/>
				</g>
			</g>
			<g>
				<g>
					<path style="fill:#F9CF64;" d="M18.066,87.234h-6.034c0-41.467,33.737-75.203,75.202-75.203v6.035
						C49.096,18.066,18.066,49.094,18.066,87.234z"/>
				</g>
			</g>
			<g>
				<g>
					<path style="fill:#F9CF64;" d="M87.233,162.437v-6.035c38.141,0,69.168-31.028,69.168-69.168h6.035
						C162.437,128.701,128.701,162.437,87.233,162.437z"/>
				</g>
			</g>
			<g>
				<g>
					<path style="fill:#F9CF64;" d="M87.233,150.405v-6.035c31.507,0,57.138-25.631,57.138-57.137h6.034
						C150.405,122.067,122.067,150.405,87.233,150.405z"/>
				</g>
			</g>
			<g>
				<g>
					<path style="fill:#F9CF64;" d="M30.097,87.234h-6.035c0-34.833,28.339-63.171,63.172-63.171v6.035
						C55.729,30.097,30.097,55.728,30.097,87.234z"/>
				</g>
			</g>
		</g>
	</g>
	<g>
		<g>
			<g>
				<g>
					<path style="fill:#FDE8A2;" d="M174.468,87.234h-6.035c0-44.773-36.426-81.199-81.199-81.199V0
						C135.334,0,174.468,39.133,174.468,87.234z"/>
				</g>
			</g>
			<g>
				<g>
					<path style="fill:#FDE8A2;" d="M87.233,174.468C39.134,174.468,0,135.335,0,87.234h6.035c0,44.773,36.426,81.199,81.198,81.199
						V174.468z"/>
				</g>
			</g>
			<g>
				<g>
					<path style="fill:#FDE8A2;" d="M87.233,162.437c-41.465,0-75.202-33.736-75.202-75.203h6.034
						c0,38.14,31.03,69.168,69.168,69.168V162.437z"/>
				</g>
			</g>
			<g>
				<g>
					<path style="fill:#FDE8A2;" d="M162.437,87.234h-6.035c0-38.139-31.027-69.168-69.168-69.168v-6.035
						C128.701,12.031,162.437,45.767,162.437,87.234z"/>
				</g>
			</g>
			<g>
				<g>
					<path style="fill:#FDE8A2;" d="M150.405,87.234h-6.034c0-31.505-25.631-57.137-57.138-57.137v-6.035
						C122.067,24.062,150.405,52.401,150.405,87.234z"/>
				</g>
			</g>
			<g>
				<g>
					<path style="fill:#FDE8A2;" d="M87.233,150.405c-34.833,0-63.172-28.338-63.172-63.172h6.035
						c0,31.506,25.633,57.137,57.137,57.137V150.405z"/>
				</g>
			</g>
		</g>
	</g>
	<g>
		<g>
			<circle style="fill:#FBD009;" cx="87.234" cy="87.234" r="46.32"/>
		</g>
	</g>
</g>
</svg>